# xmcd CD database file
#
# Track frame offsets:
#	150
#	19977
#	40010
#	57290
#	75932
#	94872
#	111337
#	130532
#	146807
#	164905
#
# Disc length: 2440 seconds
#
# Revision: 0
# Processed by: cddbd v1.5PL3 Copyright (c) Steve Scherf et al.
# Submitted via: CDex 1.51
#
DISCID=8309860a
DTITLE=国安修司 - 針のない時計
DYEAR=1900
DGENRE=Japanese Pop
TTITLE0=針のない時計
TTITLE1=ねぇ
TTITLE2=5月9日
TTITLE3=海の見える駅
TTITLE4=僕たちの失敗
TTITLE5=彼女の頬をたたいた夜に
TTITLE6=たった5パーセント
TTITLE7=陸風に運ばれて
TTITLE8=れいこ
TTITLE9=アンコール
EXTD=
EXTT0=
EXTT1=
EXTT2=
EXTT3=
EXTT4=
EXTT5=
EXTT6=
EXTT7=
EXTT8=
EXTT9=
PLAYORDER=
